<?xml version="1.0" encoding="utf-8"?>
<!-- Generator: Adobe Illustrator 25.1.0, SVG Export Plug-In . SVG Version: 6.00 Build 0)  -->
<svg version="1.1" xmlns="http://www.w3.org/2000/svg" xmlns:xlink="http://www.w3.org/1999/xlink" x="0px" y="0px"
	 viewBox="0 0 23.57 30.8" style="enable-background:new 0 0 23.57 30.8;" xml:space="preserve">
<style type="text/css">
	.st0{display:none;}
	.st1{display:inline;}
	.st2{fill:#616160;}
	.st3{display:inline;fill:#616160;}
	.st4{fill:#FFFFFF;}
</style>
<g id="Layer_1" class="st0">
	<g class="st1">
		<path class="st2" d="M20.14,6.97H3.51c-1.77,0-3.2,1.43-3.2,3.2v10.52c0,1.77,1.43,3.2,3.2,3.2h16.63c1.77,0,3.2-1.43,3.2-3.2
			V10.17C23.34,8.4,21.91,6.97,20.14,6.97z M8.32,18.39L3.85,22.2c-0.32,0.27-0.79,0.23-1.06-0.08c-0.27-0.32-0.23-0.79,0.08-1.06
			l4.48-3.82c0.32-0.27,0.79-0.23,1.06,0.08C8.68,17.64,8.64,18.12,8.32,18.39z M11.83,16.93c-0.6,0-1.18-0.2-1.63-0.59l0,0l0,0
			c0,0,0,0,0,0l-6.87-5.96c-0.31-0.27-0.35-0.75-0.08-1.06C3.52,9,3.99,8.97,4.31,9.24l6.87,5.96c0.15,0.13,0.39,0.23,0.65,0.22
			c0.26,0,0.49-0.09,0.65-0.23l0,0l6.86-5.96C19.66,8.97,20.13,9,20.4,9.32c0.27,0.31,0.24,0.79-0.08,1.06l-6.87,5.96
			C13,16.73,12.42,16.93,11.83,16.93z M20.86,22.12c-0.27,0.32-0.74,0.35-1.06,0.08l-4.48-3.82c-0.32-0.27-0.35-0.74-0.08-1.06
			c0.27-0.32,0.74-0.35,1.06-0.08l4.48,3.82C21.1,21.33,21.13,21.81,20.86,22.12z"/>
	</g>
</g>
<g id="Layer_2" class="st0">
	<path class="st3" d="M16.47,18.57l-0.59,0.59c0,0-1.41,1.41-5.27-2.43c-3.86-3.84-2.45-5.24-2.45-5.24l0.37-0.37
		c0.92-0.92,1.01-2.39,0.2-3.47l-1.65-2.2c-1-1.33-2.92-1.51-4.06-0.37L0.98,7.12c-0.57,0.56-0.95,1.29-0.9,2.1
		c0.12,2.07,1.05,6.53,6.28,11.73c5.55,5.51,10.75,5.73,12.88,5.53c0.67-0.06,1.26-0.41,1.73-0.87l1.86-1.84
		c1.25-1.25,0.9-3.38-0.7-4.25l-2.49-1.36C18.57,17.59,17.29,17.75,16.47,18.57z"/>
</g>
<g id="Layer_3">
	<path class="st4" d="M11.83,0.6C5.68,0.6,0.7,5.58,0.7,11.72c0,2.42,0.79,4.64,2.11,6.46c0.02,0.04,0.03,0.09,0.05,0.13l7.41,11.12
		c0.34,0.52,0.92,0.83,1.54,0.83s1.2-0.31,1.54-0.83l7.41-11.12c0.03-0.04,0.03-0.09,0.05-0.13c1.32-1.82,2.11-4.04,2.11-6.46
		C22.95,5.58,17.97,0.6,11.83,0.6z M11.83,15.43c-2.05,0-3.71-1.66-3.71-3.71s1.66-3.71,3.71-3.71s3.71,1.66,3.71,3.71
		S13.87,15.43,11.83,15.43z"/>
</g>
</svg>
