<?xml version="1.0" encoding="utf-8"?>
<!-- Generator: Adobe Illustrator 25.1.0, SVG Export Plug-In . SVG Version: 6.00 Build 0)  -->
<svg version="1.1" id="Layer_1" xmlns="http://www.w3.org/2000/svg" xmlns:xlink="http://www.w3.org/1999/xlink" x="0px" y="0px"
	 viewBox="0 0 27.18 23.52" style="enable-background:new 0 0 27.18 23.52;" xml:space="preserve">
<style type="text/css">
	.st0{display:none;}
	.st1{display:inline;}
	.st2{fill:#616160;}
	.st3{fill:#FFFFFF;}
	.st4{display:inline;fill:#616160;}
</style>
<g id="Layer_1_1_" class="st0">
	<g class="st1">
		<path class="st2" d="M22.24,3.22H5.61c-1.77,0-3.2,1.43-3.2,3.2v10.52c0,1.77,1.43,3.2,3.2,3.2h16.63c1.77,0,3.2-1.43,3.2-3.2
			V6.42C25.44,4.65,24.01,3.22,22.24,3.22z M10.43,14.64l-4.48,3.82c-0.32,0.27-0.79,0.23-1.06-0.08c-0.27-0.32-0.23-0.79,0.08-1.06
			l4.48-3.82c0.32-0.27,0.79-0.23,1.06,0.08C10.78,13.89,10.74,14.37,10.43,14.64z M13.93,13.18c-0.6,0-1.18-0.2-1.63-0.59l0,0l0,0
			l0,0L5.42,6.63C5.11,6.36,5.08,5.88,5.35,5.57C5.62,5.25,6.1,5.22,6.41,5.49l6.87,5.96c0.15,0.13,0.39,0.23,0.65,0.22
			c0.26,0,0.49-0.09,0.65-0.23l0,0l6.86-5.96c0.31-0.27,0.79-0.24,1.06,0.08c0.27,0.31,0.24,0.79-0.08,1.06l-6.87,5.96
			C15.11,12.98,14.53,13.18,13.93,13.18z M22.97,18.37c-0.27,0.32-0.74,0.35-1.06,0.08l-4.48-3.82c-0.32-0.27-0.35-0.74-0.08-1.06
			s0.74-0.35,1.06-0.08l4.48,3.82C23.2,17.58,23.24,18.06,22.97,18.37z"/>
	</g>
</g>
<g id="Layer_2_1_">
	<path class="st3" d="M18.57,14.82l-0.59,0.59c0,0-1.41,1.41-5.27-2.43s-2.45-5.24-2.45-5.24l0.37-0.37
		c0.92-0.92,1.01-2.39,0.2-3.47L9.19,1.7c-1-1.33-2.92-1.51-4.06-0.37L3.08,3.37c-0.57,0.56-0.95,1.29-0.9,2.1
		C2.3,7.54,3.23,12,8.46,17.2c5.55,5.51,10.75,5.73,12.88,5.53c0.67-0.06,1.26-0.41,1.73-0.87l1.86-1.84
		c1.25-1.25,0.9-3.38-0.7-4.25l-2.49-1.36C20.67,13.84,19.39,14,18.57,14.82z"/>
</g>
<g id="Layer_3" class="st0">
	<path class="st4" d="M13.93-3.15C7.79-3.15,2.81,1.83,2.81,7.97c0,2.42,0.79,4.64,2.11,6.46c0.02,0.04,0.03,0.09,0.05,0.13
		l7.41,11.12c0.34,0.52,0.92,0.83,1.54,0.83s1.2-0.31,1.54-0.83l7.41-11.12c0.03-0.04,0.03-0.09,0.05-0.13
		c1.32-1.82,2.11-4.04,2.11-6.46C25.05,1.83,20.07-3.15,13.93-3.15z M13.93,11.68c-2.05,0-3.71-1.66-3.71-3.71s1.66-3.71,3.71-3.71
		s3.71,1.66,3.71,3.71S15.97,11.68,13.93,11.68z"/>
</g>
</svg>
