<?xml version="1.0" encoding="utf-8"?>
<!-- Generator: Adobe Illustrator 25.1.0, SVG Export Plug-In . SVG Version: 6.00 Build 0)  -->
<svg version="1.1" id="Layer_1" xmlns="http://www.w3.org/2000/svg" xmlns:xlink="http://www.w3.org/1999/xlink" x="0px" y="0px"
	 viewBox="0 0 134.5 134.5" style="enable-background:new 0 0 134.5 134.5;" xml:space="preserve">
<style type="text/css">
	.st0{fill:#393838;}
	.st1{fill:#8C1913;}
	.st2{fill:#E09A58;}
</style>
<path class="st0" d="M-564.8-845.5C-347.5-766.9-131.7-727,82.5-727h-647.3V-845.5z"/>
<path class="st0" d="M715.2-845.5V-727H82.6C295-727,505.9-766.2,715.2-845.5z"/>
<g>
	<circle class="st1" cx="67.3" cy="67.3" r="63.9"/>
	<path class="st2" d="M57.9,92.6l34.6-18.1c4.4-2.3,4.7-8.5,0.5-11.2L60,42.5c-4.2-2.7-9.7,0.2-9.9,5.2l-1.6,39
		C48.2,91.6,53.5,95,57.9,92.6l34.6-18.1c4.4-2.3,4.7-8.5,0.5-11.2L60,42.5c-4.2-2.7-9.7,0.2-9.9,5.2l-1.6,39
		C48.2,91.6,53.5,95,57.9,92.6z"/>
</g>
</svg>
