<?xml version="1.0" encoding="utf-8"?>
<!-- Generator: Adobe Illustrator 25.1.0, SVG Export Plug-In . SVG Version: 6.00 Build 0)  -->
<svg version="1.1" id="Layer_1" xmlns="http://www.w3.org/2000/svg" xmlns:xlink="http://www.w3.org/1999/xlink" x="0px" y="0px"
	 viewBox="0 0 207 144.9" style="enable-background:new 0 0 207 144.9;" xml:space="preserve">
<style type="text/css">
	.st0{fill:#FFFFFF;}
</style>
<g>
	<path class="st0" d="M149.6,51.2c0.6-0.3,1.1-0.7,1.6-1.1c5.6-4.2,9.2-11.3,9.2-18.7c0-10.2-4.9-18.4-13.4-22.2
		c-0.8-0.4-1.7-0.7-2.6-1C140.3,6.9,135,6,130.6,6h-4.3c-2.6,0.1-5.5,0.2-8.4,0.5c-0.7,0-1.8,0.2-3.2,0.3v47.5
		c5.8,0.6,10.2,0.9,15.1,0.9C138.6,55.3,145.3,53.9,149.6,51.2z M127.9,45.1V16.4h0.9c5,0,7.8,0.6,10.7,2.3c4.2,2.5,7,7.6,7,12.7
		c0,8.6-5.4,13.9-14,13.9h-1.2c-0.9,0-1.6,0-2.4-0.1C128.7,45.1,128.3,45.1,127.9,45.1z"/>
	<path class="st0" d="M200,19c0-8.4-7.1-13.1-20.1-13.1c-5,0-8.4,0.2-16,1.1v47.1c6.9,1,10.5,1.2,16.1,1.2c4.7,0,9.3-0.5,12.1-1.4
		c6.7-2,10.4-6.6,10.4-12.8c0-6-3.3-10.4-9.3-12.1C198,26.5,200,23.6,200,19z M176.4,14.9c1.3-0.1,2.9-0.2,3.5-0.2
		c4.7,0,7.4,2.2,7.4,6.1c0,2.5-2.6,5.5-4.7,5.5h-6.2V14.9z M181.6,46.6h-1.2c-0.9,0-1.8,0-2.6-0.1c-0.3-0.1-0.8-0.1-1.4-0.2V34.1h4
		c5.7,0,8.9,2.3,8.9,6.5C189.2,44.3,186.4,46.6,181.6,46.6z"/>
	<path class="st0" d="M117,61.1V87c0,5.7,0.8,9.6,2.5,12.3c3,4.7,9.1,7.2,17.5,7.2c6.1,0,12-1.8,15.2-4.5c3.7-3.1,5.2-7.3,5.2-14.4
		V61.1h-12V87c0,3-0.4,5.1-1.2,6.3c-1.3,2.1-3.7,3.3-6.7,3.3c-2.7,0-4.8-0.7-6.3-1.9c-1.8-1.6-2.4-3.7-2.4-7.7V61.1H117z"/>
	<path class="st0" d="M185.1,70.5c3.6,0,6.6,1.2,9.6,4l7.2-8.4c-4.7-4.3-10-6.2-17.1-6.2c-4.4,0-8.5,1-11.9,2.9
		c-7.3,3.9-12.1,11.4-12.1,20.2c0,6.5,1.7,11.6,5.4,15.8c0,0,0,0,0,0c4.1,4.7,11,7.6,17.8,7.6c7.4,0,13.1-1.7,18.5-5.4V80.5h-18.1
		l-0.9,8.4h7.3v6.4c-1.9,0.8-3.2,1.1-5.3,1c-6.9-0.3-12-5.9-12-12.9C173.6,75.7,178.2,70.5,185.1,70.5z"/>
	<g>
		<path class="st0" d="M130.1,122.9h-6.8v-2.4c0-1.5-0.1-2.4-0.2-2.8c-0.1-0.4-0.4-0.6-0.9-0.6c-0.4,0-0.7,0.2-0.8,0.5
			s-0.2,1.2-0.2,2.5v12.5c0,1.2,0.1,1.9,0.2,2.3c0.2,0.4,0.4,0.6,0.9,0.6c0.5,0,0.8-0.2,1-0.6s0.3-1.2,0.3-2.4v-3.1h-1.4v-4h7.9v14
			h-4.3l-0.6-1.9c-0.5,0.8-1,1.4-1.8,1.8c-0.7,0.4-1.5,0.6-2.5,0.6c-1.1,0-2.2-0.3-3.2-0.8s-1.8-1.2-2.3-2.1c-0.5-0.8-0.8-1.7-1-2.6
			c-0.1-0.9-0.2-2.2-0.2-4v-7.7c0-2.5,0.1-4.3,0.4-5.4c0.3-1.1,1-2.2,2.3-3.1c1.3-0.9,2.9-1.4,4.9-1.4c2,0,3.6,0.4,4.9,1.2
			c1.3,0.8,2.2,1.8,2.6,2.9c0.4,1.1,0.6,2.8,0.6,4.9L130.1,122.9L130.1,122.9z"/>
		<path class="st0" d="M144.4,113.3l3.9,26.1h-6.9l-0.4-4.7h-2.4l-0.4,4.7h-7l3.5-26.1C134.6,113.3,144.4,113.3,144.4,113.3z
			 M140.9,130c-0.3-2.9-0.7-6.6-1-10.9c-0.7,5-1.1,8.6-1.3,10.9H140.9z"/>
		<path class="st0" d="M170.4,113.3v26.1h-5.9l0-17.6l-2.4,17.6h-4.2l-2.5-17.2l0,17.2h-5.9v-26.1h8.8c0.3,1.6,0.5,3.4,0.8,5.5
			l1,6.6l1.6-12.2L170.4,113.3L170.4,113.3z"/>
		<path class="st0" d="M173.1,113.3h11.3v5.2h-4.5v4.9h4.2v5h-4.2v5.7h5v5.2h-11.8V113.3z"/>
		<path class="st0" d="M201.2,121.1h-6.3v-1.9c0-0.9-0.1-1.5-0.2-1.7c-0.2-0.2-0.4-0.4-0.8-0.4c-0.4,0-0.7,0.2-0.9,0.5
			c-0.2,0.3-0.3,0.8-0.3,1.5c0,0.9,0.1,1.5,0.4,2c0.2,0.4,0.9,1,1.9,1.6c3,1.8,4.9,3.3,5.7,4.4c0.8,1.1,1.2,3,1.2,5.6
			c0,1.9-0.2,3.2-0.6,4.1s-1.3,1.6-2.5,2.2c-1.2,0.6-2.7,0.9-4.4,0.9c-1.8,0-3.4-0.3-4.6-1c-1.3-0.7-2.1-1.6-2.5-2.6
			c-0.4-1.1-0.6-2.6-0.6-4.5V130h6.3v3.2c0,1,0.1,1.6,0.3,1.9c0.2,0.3,0.5,0.4,0.9,0.4s0.8-0.2,1-0.5s0.3-0.9,0.3-1.6
			c0-1.5-0.2-2.5-0.6-3c-0.4-0.5-1.5-1.3-3.2-2.4c-1.7-1.1-2.8-1.9-3.4-2.4c-0.6-0.5-1-1.2-1.4-2.1s-0.5-2-0.5-3.4
			c0-2,0.2-3.5,0.8-4.4s1.3-1.7,2.5-2.2s2.5-0.8,4.1-0.8c1.8,0,3.3,0.3,4.5,0.8c1.2,0.6,2.1,1.3,2.5,2.2c0.4,0.9,0.6,2.3,0.6,4.4
			L201.2,121.1L201.2,121.1z"/>
	</g>
	<path class="st0" d="M4,103.5v-7.1c2.2-4.9,6.9-10.7,13.4-10.7c8.9-0.3,14.4,10.6,14.4,15.6c0.4,5.2-4.7,1.5-14.6,1.3
		C10.8,102.3,6.2,103.8,4,103.5z"/>
	<path class="st0" d="M60.2,101.3c0.7-6.6,8.5-21.9,21.2-21.8c12.7-0.4,20.5,15.2,20.5,22.2c0.6,7.4-6.7,2.1-20.8,1.8
		C66.8,103,58.9,108.3,60.2,101.3z"/>
	<path class="st0" d="M4,4.6v14.6c0,0,0.1,0,0.1,0.1c4.6,7.9,4.4,26,7,33.8c0.8,2.5,2,4,3.7,3.7c1.5,1.4,3.1,3.1,4,4.8
		c0.8,1.4,1,2.8,0.4,4c-0.2,0.3-0.4,0.5-0.7,0.7c-1.3,1-3.4,0.5-5.2-1c-1-0.8-1.9-1.8-2.7-3.1c-1.3-1.5-2.5-3.7-3.6-6.3
		c-1-2.4-2-5-3-7.7v25.3c1.5-1.6,3.1-3.1,4.8-4.6c2.4,2.2,5.3,3.5,8.1,3.5c1.9,0,3.6-0.6,4.9-1.6c0.9-0.7,1.7-1.5,2.2-2.5l0.1-0.2
		c1.8-3.4,1.1-6.7-0.4-9.5c9.9-5.1,21.1-7.9,33-7.9c8.2,0,16,1.3,23.3,3.8c1.3,3.2,2.8,6.1,4.6,8.3c1.4,2.3,3.4,4.2,5.5,5.4h0
		c0.4,0,0.6,0.1,0.6,0.3h0c1.5,0.8,3.2,1.2,4.8,1.2c1.9,0,3.6-0.6,4.9-1.6c0.6-0.4,1.1-0.9,1.6-1.5c2.5,2,4.9,4.2,7.2,6.6V4.6H4z
		 M98,62.8c-0.1,0.2-0.2,0.3-0.4,0.5c-0.1,0.1-0.2,0.2-0.3,0.3c-1.9,1.5-5.8-0.5-7.9-4.1c-0.4-0.5-0.8-1-1.2-1.6
		c-2.3-3.5-4.2-9.2-6.2-14.6c-2-5.5-4.2-10.6-7-12.8c-3.5-2.4-8.7-1.1-14.8,1.9c-3,1.5-6.6,0.2-7.9-2.7c-1.3-3,0-6.3,3.1-7.9
		c9.5-5,21.9-10.1,27.5-5.3c3.8,6.6,4.3,20.4,5.9,29.3c0.9,5.2,2.2,8.8,4.7,8.2C96.2,56.6,99.4,60.2,98,62.8z"/>
	<rect x="4" y="123.5" class="st0" width="105.3" height="17.8"/>
</g>
</svg>
