<?xml version="1.0" encoding="utf-8"?>
<!-- Generator: Adobe Illustrator 25.1.0, SVG Export Plug-In . SVG Version: 6.00 Build 0)  -->
<svg version="1.1" id="Layer_1" xmlns="http://www.w3.org/2000/svg" xmlns:xlink="http://www.w3.org/1999/xlink" x="0px" y="0px"
	 viewBox="0 0 207.04 144.9" style="enable-background:new 0 0 207.04 144.9;" xml:space="preserve">
<style type="text/css">
	.st0{fill:#FFFFFF;}
</style>
<g>
	<path class="st0" d="M149.57,51.23c0.55-0.32,1.06-0.68,1.57-1.08c5.64-4.19,9.23-11.34,9.23-18.69c0-10.25-4.95-18.42-13.4-22.21
		c-0.81-0.38-1.66-0.72-2.55-1c-4.11-1.32-9.47-2.21-13.8-2.21h-4.27c-2.64,0.08-5.51,0.23-8.36,0.53c-0.68,0-1.77,0.15-3.17,0.28
		v47.53c5.81,0.59,10.21,0.89,15.14,0.89C138.55,55.27,145.31,53.87,149.57,51.23z M127.9,45.06V16.41h0.94
		c5,0,7.79,0.59,10.74,2.28c4.25,2.49,7.04,7.57,7.04,12.7c0,8.59-5.36,13.87-14.02,13.87h-1.25c-0.89,0-1.62,0-2.43-0.13
		C128.72,45.14,128.34,45.06,127.9,45.06z"/>
	<path class="st0" d="M200.02,18.98c0-8.44-7.13-13.06-20.14-13.06c-4.98,0-8.44,0.21-16.01,1.09v47.15
		c6.91,0.96,10.51,1.19,16.08,1.19c4.7,0,9.27-0.53,12.12-1.4c6.7-1.98,10.44-6.62,10.44-12.78c0-6.04-3.3-10.36-9.32-12.06
		C198.04,26.54,200.02,23.6,200.02,18.98z M176.37,14.86c1.32-0.13,2.85-0.21,3.51-0.21c4.72,0,7.42,2.19,7.42,6.1
		c0,2.49-2.57,5.51-4.7,5.51h-6.23V14.86z M181.58,46.59h-1.25c-0.89,0-1.77,0-2.57-0.06c-0.3-0.08-0.81-0.08-1.4-0.15V34.11h3.96
		c5.72,0,8.89,2.34,8.89,6.53C189.23,44.32,186.36,46.59,181.58,46.59z"/>
	<path class="st0" d="M117.01,61.13v25.83c0,5.72,0.8,9.56,2.49,12.31c2.96,4.65,9.08,7.19,17.48,7.19c6.07,0,11.98-1.75,15.22-4.5
		c3.7-3.09,5.24-7.33,5.24-14.4V61.13h-11.96v25.83c0,2.96-0.41,5.05-1.16,6.33c-1.26,2.07-3.7,3.29-6.66,3.29
		c-2.68,0-4.77-0.67-6.26-1.94c-1.75-1.56-2.42-3.65-2.42-7.68V61.13H117.01z"/>
	<path class="st0" d="M185.08,70.54c3.56,0,6.61,1.23,9.63,3.98l7.19-8.4c-4.7-4.31-9.96-6.19-17.15-6.19
		c-4.39,0-8.46,1.05-11.95,2.94c-7.28,3.91-12.07,11.38-12.07,20.2c0,6.52,1.73,11.6,5.43,15.79c0,0.02,0,0.02,0.02,0.03
		c4.1,4.7,10.96,7.59,17.83,7.59c7.4,0,13.12-1.68,18.5-5.38V80.45h-18.1l-0.86,8.4h7.33v6.45c-1.88,0.81-3.23,1.09-5.26,1.02
		c-6.86-0.35-12.03-5.86-12.03-12.92C173.59,75.73,178.22,70.54,185.08,70.54z"/>
	<g>
		<path class="st0" d="M130.09,122.85h-6.78v-2.37c0-1.49-0.06-2.43-0.19-2.8c-0.13-0.38-0.43-0.56-0.92-0.56
			c-0.42,0-0.7,0.16-0.85,0.48c-0.15,0.32-0.23,1.15-0.23,2.48v12.51c0,1.17,0.07,1.94,0.23,2.31c0.15,0.37,0.45,0.56,0.9,0.56
			c0.49,0,0.83-0.21,1.01-0.63c0.18-0.42,0.27-1.23,0.27-2.45v-3.09h-1.37v-3.96h7.94v13.99h-4.26l-0.63-1.87
			c-0.46,0.81-1.04,1.41-1.75,1.81c-0.7,0.4-1.53,0.6-2.49,0.6c-1.14,0-2.21-0.28-3.2-0.83c-0.99-0.55-1.75-1.24-2.26-2.05
			c-0.52-0.82-0.84-1.67-0.97-2.57c-0.13-0.9-0.19-2.24-0.19-4.03v-7.75c0-2.49,0.13-4.3,0.4-5.43c0.27-1.13,1.04-2.16,2.31-3.1
			c1.27-0.94,2.92-1.41,4.94-1.41c1.99,0,3.63,0.41,4.94,1.22c1.31,0.82,2.16,1.79,2.56,2.91c0.4,1.12,0.6,2.75,0.6,4.89V122.85z"/>
		<path class="st0" d="M144.44,113.25l3.88,26.07h-6.93l-0.36-4.69h-2.43l-0.41,4.69h-7.01l3.46-26.07H144.44z M140.85,130.02
			c-0.34-2.95-0.69-6.6-1.03-10.95c-0.69,4.99-1.12,8.64-1.3,10.95H140.85z"/>
		<path class="st0" d="M170.39,113.25v26.07h-5.93l-0.01-17.6l-2.36,17.6h-4.2l-2.49-17.2l-0.01,17.2h-5.93v-26.07h8.77
			c0.26,1.57,0.53,3.42,0.8,5.54l0.96,6.63l1.56-12.18H170.39z"/>
		<path class="st0" d="M173.11,113.25h11.31v5.22h-4.53v4.94h4.24v4.96h-4.24v5.73h4.98v5.22h-11.76V113.25z"/>
		<path class="st0" d="M201.18,121.14h-6.3v-1.93c0-0.9-0.08-1.48-0.24-1.72c-0.16-0.25-0.43-0.37-0.8-0.37
			c-0.41,0-0.72,0.17-0.93,0.5c-0.21,0.33-0.31,0.84-0.31,1.51c0,0.87,0.12,1.53,0.35,1.97c0.22,0.44,0.86,0.97,1.92,1.59
			c3.02,1.79,4.92,3.26,5.7,4.41c0.78,1.15,1.18,3,1.18,5.56c0,1.86-0.22,3.23-0.65,4.11c-0.43,0.88-1.27,1.62-2.52,2.21
			c-1.25,0.6-2.69,0.89-4.35,0.89c-1.81,0-3.36-0.34-4.65-1.03c-1.28-0.69-2.12-1.56-2.52-2.63c-0.4-1.06-0.6-2.57-0.6-4.53v-1.71
			h6.3v3.17c0,0.98,0.09,1.61,0.27,1.88c0.18,0.28,0.49,0.42,0.94,0.42c0.45,0,0.79-0.18,1.01-0.53c0.22-0.35,0.33-0.88,0.33-1.58
			c0-1.54-0.21-2.54-0.63-3.01c-0.43-0.47-1.49-1.26-3.17-2.37c-1.69-1.12-2.8-1.93-3.35-2.43c-0.55-0.51-1-1.2-1.36-2.09
			c-0.36-0.89-0.54-2.03-0.54-3.41c0-2,0.25-3.46,0.76-4.38c0.51-0.92,1.33-1.65,2.47-2.17c1.14-0.52,2.51-0.78,4.12-0.78
			c1.76,0,3.26,0.29,4.5,0.85c1.24,0.57,2.06,1.29,2.46,2.15c0.4,0.86,0.6,2.33,0.6,4.4V121.14z"/>
	</g>
	<path class="st0" d="M4.04,103.54v-7.12c2.22-4.9,6.92-10.69,13.44-10.66c8.91-0.26,14.35,10.62,14.37,15.57
		c0.41,5.21-4.72,1.48-14.61,1.26C10.83,102.32,6.25,103.78,4.04,103.54z"/>
	<path class="st0" d="M60.18,101.32c0.69-6.58,8.54-21.86,21.17-21.78c12.7-0.37,20.46,15.16,20.5,22.21
		c0.57,7.41-6.74,2.11-20.84,1.78C66.84,102.96,58.94,108.25,60.18,101.32z"/>
	<path class="st0" d="M4.04,4.56v14.55c0.03,0.02,0.05,0.04,0.08,0.06c4.56,7.95,4.43,26.03,7.01,33.84
		c0.84,2.54,1.98,3.99,3.65,3.65c1.47,1.41,3.09,3.14,4.02,4.85c0.75,1.4,1.04,2.78,0.38,3.99c-0.17,0.29-0.38,0.54-0.66,0.73
		c-1.27,0.96-3.35,0.47-5.23-0.98c-1.01-0.77-1.95-1.83-2.68-3.07C9.28,60.7,8.1,58.47,7,55.88c-1.02-2.36-1.99-5.03-2.96-7.7V73.5
		c1.51-1.6,3.1-3.13,4.76-4.58c2.39,2.22,5.3,3.52,8.14,3.52c1.88,0,3.62-0.57,4.93-1.57c0.91-0.67,1.67-1.5,2.25-2.5l0.08-0.16
		c1.84-3.39,1.08-6.73-0.43-9.5c9.91-5.08,21.14-7.94,33.05-7.94c8.17,0,16.01,1.34,23.34,3.84c1.33,3.22,2.78,6.09,4.6,8.27
		c1.45,2.31,3.41,4.18,5.53,5.36h0.04c0.4-0.03,0.57,0.09,0.6,0.34h0.01c1.54,0.76,3.15,1.17,4.75,1.17c1.88,0,3.62-0.57,4.93-1.57
		c0.59-0.43,1.11-0.93,1.57-1.5c2.54,2.03,4.94,4.22,7.18,6.57V4.56H4.04z M97.96,62.83c-0.1,0.19-0.21,0.34-0.36,0.47
		c-0.08,0.1-0.18,0.19-0.3,0.27c-1.94,1.47-5.83-0.48-7.91-4.06c-0.43-0.47-0.84-1.03-1.23-1.64c-2.31-3.55-4.19-9.24-6.19-14.6
		c-2.02-5.49-4.16-10.62-6.98-12.77c-3.51-2.37-8.74-1.14-14.83,1.94c-3.05,1.51-6.56,0.21-7.87-2.72
		c-1.29-2.98-0.04-6.32,3.07-7.87c9.55-5.02,21.85-10.08,27.53-5.33c3.82,6.64,4.35,20.39,5.94,29.27c0.93,5.21,2.21,8.75,4.72,8.23
		C96.23,56.55,99.41,60.16,97.96,62.83z"/>
	<rect x="4.04" y="123.49" class="st0" width="105.35" height="17.83"/>
</g>
</svg>
