<?xml version="1.0" encoding="utf-8"?>
<!-- Generator: Adobe Illustrator 25.1.0, SVG Export Plug-In . SVG Version: 6.00 Build 0)  -->
<svg version="1.1" id="Layer_1" xmlns="http://www.w3.org/2000/svg" xmlns:xlink="http://www.w3.org/1999/xlink" x="0px" y="0px"
	 viewBox="0 0 161.41 178.58" style="enable-background:new 0 0 161.41 178.58;" xml:space="preserve">
<style type="text/css">
	.st0{fill:#393838;}
</style>
<g>
	<path class="st0" d="M77.2,139.36c3.45,0,6.24-1.36,6.24-3.02c0-1.64-2.79-3-6.24-3c-3.45,0-6.24,1.36-6.24,3
		C70.96,138.01,73.75,139.36,77.2,139.36z"/>
	<path class="st0" d="M110.91,140.53c4.29-2.3,4.74-9.42,4.97-16.4c-0.12-7-0.57-14.1-4.97-16.45c-4.27-2.46-13.16,4.46-13.14,16.4
		C97.88,136.04,106.74,142.94,110.91,140.53z"/>
	<path class="st0" d="M111.51,58.36c-1.07-0.43-2.14-0.8-3.22-1.19c1.15-2.34,1.89-6.59,0.39-14.31c0,0-2.71,10.29-7.97,12.07
		c-1.77-0.43-3.55-0.82-5.34-1.13c-0.51-0.37-1.03-0.8-1.56-1.31c-6.16-6.12-15.66-15.25-9.77-28.5c5.91-13.24,23.2-8.66,20,3.28
		c-3.2,11.91-13.84,5.13-12.09-1.42c-0.31,0.84-4.91,13.9,4.46,14.52c9.67,0.62,14.43-6.73,13.92-9.16s-3.39-26.77-6.06-26.79
		c-2.75,0-33.03,11.11-33.2,12.85c-0.14,1.75-0.35,24.6-2.67,27.41c0,0-4.97-14.31-23.9-2.38c-2.14,11.39,4.07,10.39,6.08,11.09
		c0,0-3.28-6.18-1.46-7.53c1.81-1.33,13.49-2.67,8.17,7.62c-0.47,0.88-0.47,1.66-0.14,2.36c-2.87,0.82-5.71,1.81-8.5,2.96
		C19.29,70.89,3.85,96.63,3.99,137.65l-0.06,15.48c-0.05,12.1,9.75,21.93,21.84,21.93h107.61c12.06,0,21.84-9.78,21.84-21.84v-15.65
		C156.02,97.74,142.33,70.56,111.51,58.36z M94.84,157.48l-6.04-8.89l1.5,9.63c-2.3,0.31-4.64,0.49-7.04,0.62v-8.4l-2.11,8.46
		c-1.29,0.02-2.61,0.02-3.94-0.02c-1.46-0.04-2.89-0.1-4.31-0.23l-2.11-8.21v8.05c-2.85-0.27-5.65-0.68-8.34-1.19v-8.71l-3.7,7.9
		c-19.65-4.72-33.67-16.14-33.92-32.4c-0.37-20.84,22.95-43.18,52.37-43.87c29.44-0.86,52.74,21.48,52.39,43.85
		C129.33,141.76,114.92,153.56,94.84,157.48z"/>
	<path class="st0" d="M43.51,140.53c4.17,2.4,13.04-4.5,13.12-16.45c0.04-11.95-8.85-18.87-13.12-16.4
		c-4.41,2.34-4.85,9.44-4.97,16.45C38.77,131.11,39.2,138.23,43.51,140.53z"/>
</g>
</svg>
