<?xml version="1.0" encoding="utf-8"?>
<!-- Generator: Adobe Illustrator 25.1.0, SVG Export Plug-In . SVG Version: 6.00 Build 0)  -->
<svg version="1.1" id="Layer_1" xmlns="http://www.w3.org/2000/svg" xmlns:xlink="http://www.w3.org/1999/xlink" x="0px" y="0px"
	 viewBox="0 0 76.46 158.25" style="enable-background:new 0 0 76.46 158.25;" xml:space="preserve">
<style type="text/css">
	.st0{fill:#393838;}
</style>
<path class="st0" d="M54,27.43c-0.52-0.21-1.04-0.39-1.57-0.58c0.56-1.14,0.92-3.21,0.19-6.97c0,0-1.32,5.01-3.88,5.88
	c-0.86-0.21-1.73-0.4-2.6-0.55c-0.25-0.18-0.5-0.39-0.76-0.64c-3-2.98-7.63-7.43-4.76-13.88c2.88-6.45,11.3-4.22,9.74,1.6
	c-1.56,5.8-6.74,2.5-5.89-0.69c-0.15,0.41-2.39,6.77,2.17,7.07c4.71,0.3,7.03-3.28,6.78-4.46c-0.25-1.18-1.65-13.04-2.95-13.05
	c-1.34,0-16.09,5.41-16.17,6.26C34.23,8.27,34.13,19.4,33,20.77c0,0-2.42-6.97-11.64-1.16c-1.04,5.55,1.98,5.06,2.96,5.4
	c0,0-1.6-3.01-0.71-3.67c0.88-0.65,6.57-1.3,3.98,3.71c-0.23,0.43-0.23,0.81-0.07,1.15c-1.4,0.4-2.78,0.88-4.14,1.44
	C9.08,33.53,1.56,46.07,1.63,66.05l-0.37,91.29h74.03V66.01C75.68,46.61,69.01,33.37,54,27.43z M37.29,38.08
	c14.34-0.42,25.69,10.46,25.52,21.36c-0.13,8.61-7.15,14.36-16.93,16.27l-2.94-4.33l0.73,4.69c-1.12,0.15-2.26,0.24-3.43,0.3v-4.09
	l-1.03,4.12c-0.63,0.01-1.27,0.01-1.92-0.01c-0.71-0.02-1.41-0.05-2.1-0.11l-1.03-4v3.92c-1.39-0.13-2.75-0.33-4.06-0.58v-4.24
	l-1.8,3.85c-9.57-2.3-16.4-7.86-16.52-15.78C11.6,49.3,22.96,38.42,37.29,38.08z M54.53,114.54v3.49h-9.48V85.71h4.08v28.83H54.53z
	 M42.24,85.71v32.32h-4.08V85.71H42.24z M24.55,89.12v-3.41h11.82v3.41H32.5v28.91h-4.08V89.12H24.55z M11.75,108.72h4.09v5.06
	l0.85,0.85h1.7l0.85-0.85v-9.53l-0.85-0.85h-4l-2.55-2.55V88.27l2.55-2.56h6.25l2.55,2.56v6.8h-4.08v-5.1l-0.85-0.85h-1.49
	l-0.85,0.85v9.1l0.85,0.85h4l2.55,2.55v13.01l-2.55,2.55H14.3l-2.55-2.55V108.72z M19.49,144.94l-0.29-3.63h-1.88l-0.31,3.63h-5.44
	l2.68-20.22h7.6l3.01,20.22H19.49z M34.21,144.94h-8.46v-20.22h5.27v16.18h3.19V144.94z M40.75,144.94h-5.26v-20.22h5.26V144.94z
	 M52.69,144.94H44.7l-3.04-20.22h5.55c0.64,5.57,1.1,10.28,1.38,14.14c0.27-3.9,0.56-7.36,0.86-10.38l0.37-3.76h5.55L52.69,144.94z
	 M65.38,144.94h-9.13v-20.22h8.78v4.04h-3.51v3.84h3.28v3.85h-3.28v4.45h3.86V144.94z M65.84,118.03h-9.48V85.71h4.08v28.83h5.4
	V118.03z M53.71,67.45c2.09-1.12,2.31-4.59,2.42-7.99c-0.06-3.41-0.28-6.87-2.42-8.01c-2.08-1.2-6.41,2.17-6.4,7.99
	C47.36,65.26,51.68,68.62,53.71,67.45z M37.29,66.88c1.68,0,3.04-0.66,3.04-1.47c0-0.8-1.36-1.46-3.04-1.46s-3.04,0.66-3.04,1.46
	C34.25,66.22,35.61,66.88,37.29,66.88z M20.88,67.45c2.03,1.17,6.35-2.19,6.39-8.01c0.02-5.82-4.31-9.19-6.39-7.99
	c-2.15,1.14-2.36,4.6-2.42,8.01C18.57,62.86,18.78,66.33,20.88,67.45z"/>
</svg>
