<?xml version="1.0" encoding="utf-8"?>
<!-- Generator: Adobe Illustrator 25.1.0, SVG Export Plug-In . SVG Version: 6.00 Build 0)  -->
<svg version="1.1" id="Layer_1" xmlns="http://www.w3.org/2000/svg" xmlns:xlink="http://www.w3.org/1999/xlink" x="0px" y="0px"
	 viewBox="0 0 161.4 178.6" style="enable-background:new 0 0 161.4 178.6;" xml:space="preserve">
<style type="text/css">
	.st0{fill:#FFFFFF;}
</style>
<g>
	<path class="st0" d="M78.3,138.9c3.4,0,6.2-1.4,6.2-3s-2.8-3-6.2-3s-6.2,1.4-6.2,3C72.1,137.6,74.9,138.9,78.3,138.9z"/>
	<path class="st0" d="M112,140.1c4.3-2.3,4.7-9.4,5-16.4c-0.1-7-0.6-14.1-5-16.5c-4.3-2.5-13.2,4.5-13.1,16.4
		C99,135.6,107.9,142.5,112,140.1z"/>
	<path class="st0" d="M112.6,57.9c-1.1-0.4-2.1-0.8-3.2-1.2c1.2-2.3,1.9-6.6,0.4-14.3c0,0-2.7,10.3-8,12.1c-1.8-0.4-3.6-0.8-5.3-1.1
		c-0.5-0.4-1-0.8-1.6-1.3c-6.2-6.1-15.7-15.2-9.8-28.5c5.9-13.2,23.2-8.7,20,3.3c-3.1,11.8-13.8,5.1-12-1.5
		c-0.3,0.8-4.9,13.9,4.5,14.5c9.7,0.6,14.4-6.7,13.9-9.2S108.1,4,105.4,4c-2.8,0-33,11.1-33.2,12.9c-0.1,1.8-0.3,24.6-2.7,27.4
		c0,0-5-14.3-23.9-2.4c-2.1,11.4,4.1,10.4,6.1,11.1c0,0-3.3-6.2-1.5-7.5s13.5-2.7,8.2,7.6c-0.5,0.9-0.5,1.7-0.1,2.4
		c-2.9,0.8-5.7,1.8-8.5,3C20.4,70.4,5,96.2,5.1,137.2L5,152.7c-0.1,12.1,9.8,21.9,21.8,21.9h107.6c12.1,0,21.8-9.8,21.8-21.8v-15.6
		C157.1,97.3,143.4,70.1,112.6,57.9z M96,157l-6-8.9l1.5,9.6c-2.3,0.3-4.6,0.5-7,0.6V150l-2.1,8.5c-1.3,0-2.6,0-3.9,0
		c-1.5,0-2.9-0.1-4.3-0.2l-2.1-8.2v8.1c-2.8-0.3-5.7-0.7-8.3-1.2v-8.7l-3.7,7.9c-19.7-4.7-33.7-16.1-33.9-32.4
		C25.8,103,49.1,80.6,78.6,79.9c29.4-0.9,52.7,21.5,52.4,43.8C130.4,141.3,116,153.1,96,157z"/>
	<path class="st0" d="M44.6,140.1c4.2,2.4,13-4.5,13.1-16.4c0-11.9-8.8-18.9-13.1-16.4c-4.4,2.3-4.8,9.4-5,16.5
		C39.9,130.7,40.3,137.8,44.6,140.1z"/>
</g>
</svg>
