<?xml version="1.0" encoding="utf-8"?>
<!-- Generator: Adobe Illustrator 25.1.0, SVG Export Plug-In . SVG Version: 6.00 Build 0)  -->
<svg version="1.1" id="Layer_1" xmlns="http://www.w3.org/2000/svg" xmlns:xlink="http://www.w3.org/1999/xlink" x="0px" y="0px"
	 viewBox="0 0 76.5 158.2" style="enable-background:new 0 0 76.5 158.2;" xml:space="preserve">
<style type="text/css">
	.st0{fill:#fff;}
</style>
<path class="st0" d="M54,27.4c-0.5-0.2-1-0.4-1.6-0.6c0.6-1.1,0.9-3.2,0.2-7c0,0-1.3,5-3.9,5.9c-0.9-0.2-1.7-0.4-2.6-0.5
	c-0.2-0.2-0.5-0.4-0.8-0.6c-3-3-7.6-7.4-4.8-13.9c2.9-6.4,11.3-4.2,9.7,1.6c-1.6,5.8-6.7,2.5-5.9-0.7c-0.2,0.4-2.4,6.8,2.2,7.1
	c4.7,0.3,7-3.3,6.8-4.5s-1.7-13-3-13.1c-1.3,0-16.1,5.4-16.2,6.3c-0.1,0.8-0.2,12-1.3,13.3c0,0-2.4-7-11.6-1.2c-1,5.5,2,5.1,3,5.4
	c0,0-1.6-3-0.7-3.7c0.9-0.6,6.6-1.3,4,3.7c-0.2,0.4-0.2,0.8-0.1,1.1c-1.4,0.4-2.8,0.9-4.1,1.4C9.1,33.5,1.6,46.1,1.6,66.1l-0.4,91.3
	h74V66C75.7,46.6,69,33.4,54,27.4z M37.3,38.1C51.6,37.7,63,48.5,62.8,59.4c-0.1,8.6-7.2,14.4-16.9,16.3l-2.9-4.3l0.7,4.7
	c-1.1,0.2-2.3,0.2-3.4,0.3v-4.1l-1,4.1c-0.6,0-1.3,0-1.9,0c-0.7,0-1.4-0.1-2.1-0.1l-1-4v3.9c-1.4-0.1-2.8-0.3-4.1-0.6v-4.2l-1.8,3.8
	c-9.6-2.3-16.4-7.9-16.5-15.8C11.6,49.3,23,38.4,37.3,38.1z M54.5,114.5v3.5H45V85.7h4.1v28.8H54.5z M42.2,85.7V118h-4.1V85.7H42.2z
	 M24.5,89.1v-3.4h11.8v3.4h-3.9V118h-4.1V89.1H24.5z M11.8,108.7h4.1v5.1l0.9,0.8h1.7l0.9-0.8v-9.5l-0.9-0.8h-4l-2.6-2.6V88.3
	l2.6-2.6h6.2l2.5,2.6v6.8h-4.1V90l-0.9-0.8h-1.5L15.9,90v9.1l0.9,0.8h4l2.5,2.6v13l-2.5,2.6h-6.5l-2.6-2.6V108.7z M19.5,144.9
	l-0.3-3.6h-1.9l-0.3,3.6h-5.4l2.7-20.2h7.6l3,20.2H19.5z M34.2,144.9h-8.5v-20.2H31v16.2h3.2V144.9z M40.8,144.9h-5.3v-20.2h5.3
	V144.9z M52.7,144.9h-8l-3-20.2h5.5c0.6,5.6,1.1,10.3,1.4,14.1c0.3-3.9,0.6-7.4,0.9-10.4l0.4-3.8h5.5L52.7,144.9z M65.4,144.9h-9.1
	v-20.2H65v4h-3.5v3.8h3.3v3.9h-3.3v4.4h3.9C65.4,140.9,65.4,144.9,65.4,144.9z M65.8,118h-9.5V85.7h4.1v28.8h5.4V118z M53.7,67.5
	c2.1-1.1,2.3-4.6,2.4-8c-0.1-3.4-0.3-6.9-2.4-8c-2.1-1.2-6.4,2.2-6.4,8C47.4,65.3,51.7,68.6,53.7,67.5z M37.3,66.9
	c1.7,0,3-0.7,3-1.5c0-0.8-1.4-1.5-3-1.5s-3,0.7-3,1.5C34.2,66.2,35.6,66.9,37.3,66.9z M20.9,67.5c2,1.2,6.4-2.2,6.4-8
	c0-5.8-4.3-9.2-6.4-8c-2.1,1.1-2.4,4.6-2.4,8C18.6,62.9,18.8,66.3,20.9,67.5z"/>
</svg>
