<?xml version="1.0" encoding="utf-8"?>
<!-- Generator: Adobe Illustrator 25.1.0, SVG Export Plug-In . SVG Version: 6.00 Build 0)  -->
<svg version="1.1" xmlns="http://www.w3.org/2000/svg" xmlns:xlink="http://www.w3.org/1999/xlink" x="0px" y="0px"
	 viewBox="0 0 66.52 65.43" style="enable-background:new 0 0 66.52 65.43;" xml:space="preserve">
<style type="text/css">
	.st0{fill:#262626;}
	.st1{display:none;}
	.st2{display:inline;fill:#262626;}
</style>
<g id="Layer_1">
	<path class="st0" d="M19.61,1.71c-9.48,0-17.17,7.69-17.17,17.17v27.47c0,9.48,7.69,17.17,17.17,17.17h27.47
		c9.48,0,17.17-7.69,17.17-17.17V18.88c0-9.48-7.69-17.17-17.17-17.17H19.61z M53.96,8.58c1.9,0,3.43,1.54,3.43,3.43
		s-1.54,3.43-3.43,3.43s-3.43-1.54-3.43-3.43S52.06,8.58,53.96,8.58z M33.35,15.44c9.48,0,17.17,7.69,17.17,17.17
		s-7.69,17.17-17.17,17.17S16.18,42.1,16.18,32.62S23.87,15.44,33.35,15.44z M33.35,22.31c-5.69,0-10.3,4.61-10.3,10.3
		s4.61,10.3,10.3,10.3s10.3-4.61,10.3-10.3S39.04,22.31,33.35,22.31z"/>
</g>
<g id="Layer_2" class="st1">
	<path class="st2" d="M33.35-1.55c-18.97,0-34.34,15.38-34.34,34.34c0,17.22,12.68,31.43,29.21,33.92V41.89h-8.5v-9.03h8.5v-6.01
		c0-9.95,4.85-14.31,13.11-14.31c3.96,0,6.05,0.29,7.04,0.43v7.88h-5.64c-3.51,0-4.74,3.33-4.74,7.08v4.94h10.29l-1.39,9.03H38
		v24.89c16.76-2.27,29.69-16.61,29.69-33.99C67.69,13.82,52.32-1.55,33.35-1.55z"/>
</g>
<g id="Layer_3" class="st1">
	<path class="st2" d="M12.74,1.71c-5.65,0-10.3,4.65-10.3,10.3v41.21c0,5.65,4.65,10.3,10.3,10.3h41.21c5.65,0,10.3-4.65,10.3-10.3
		V12.01c0-5.65-4.65-10.3-10.3-10.3H12.74z M33.35,15.44h6.87c0,3.45,5.05,6.87,6.87,6.87v6.87c-2.08,0-4.57-0.91-6.87-2.46v12.76
		c0,5.68-4.62,10.3-10.3,10.3s-10.3-4.62-10.3-10.3s4.62-10.3,10.3-10.3v6.87c-1.9,0-3.43,1.54-3.43,3.43s1.54,3.43,3.43,3.43
		s3.43-1.54,3.43-3.43V15.44z"/>
</g>
<g id="Layer_4" class="st1">
	<path class="st2" d="M67.69,5.14c-2.68,1.59-8.05,3.76-11.21,4.38c-0.09,0.02-0.17,0.05-0.26,0.08c-2.79-2.75-6.62-4.46-10.85-4.46
		c-8.53,0-15.45,6.92-15.45,15.45c0,0.45-0.04,1.28,0,1.72c-11.52,0-20.28-6.03-26.56-13.74C2.67,10.29,2.37,13,2.37,15.55
		c0,4.81,3.76,9.54,9.62,12.47c-1.08,0.28-2.27,0.48-3.5,0.48c-2,0-4.11-0.53-6.04-2.12c0,0.06,0,0.11,0,0.18
		c0,6.72,7.14,11.3,13.48,12.58c-1.29,0.76-3.88,0.83-5.15,0.83c-0.89,0-4.05-0.41-4.9-0.57c1.77,5.51,8.13,8.61,14.2,8.72
		c-4.75,3.72-8.04,5.1-17.76,5.1h-3.31c6.14,3.94,13.96,6.87,21.8,6.87c25.52,0,40.02-19.45,40.02-37.78c0-0.3-0.01-0.91-0.02-1.54
		c0-0.06,0.02-0.12,0.02-0.18c0-0.09-0.03-0.18-0.03-0.27c-0.01-0.47-0.02-0.9-0.03-1.13c2.71-1.96,5.07-4.4,6.93-7.18
		c-2.49,1.11-5.16,1.85-7.97,2.18C62.59,12.47,66.66,8.38,67.69,5.14z"/>
</g>
<g id="Layer_5" class="st1">
	<path class="st2" d="M66.26,12.65c-0.79-2.95-3.12-5.28-6.07-6.07c-5.36-1.44-26.84-1.44-26.84-1.44s-21.48,0-26.84,1.44
		c-2.95,0.79-5.28,3.12-6.07,6.07c-1.44,5.36-1.44,19.97-1.44,19.97s0,14.61,1.44,19.97c0.79,2.95,3.12,5.28,6.07,6.07
		c5.36,1.44,26.84,1.44,26.84,1.44s21.48,0,26.84-1.44c2.96-0.79,5.28-3.12,6.07-6.07c1.44-5.36,1.44-19.97,1.44-19.97
		S67.69,18.01,66.26,12.65z M26.48,44.51V20.72l20.61,11.9L26.48,44.51z"/>
</g>
</svg>
