<?xml version="1.0" encoding="utf-8"?>
<!-- Generator: Adobe Illustrator 25.1.0, SVG Export Plug-In . SVG Version: 6.00 Build 0)  -->
<svg version="1.1" xmlns="http://www.w3.org/2000/svg" xmlns:xlink="http://www.w3.org/1999/xlink" x="0px" y="0px"
	 viewBox="0 0 69.92 69.8" style="enable-background:new 0 0 69.92 69.8;" xml:space="preserve">
<style type="text/css">
	.st0{display:none;}
	.st1{display:inline;fill:#262626;}
	.st2{fill:#262626;}
</style>
<g id="Layer_1" class="st0">
	<path class="st1" d="M21.31,3.89c-9.48,0-17.17,7.69-17.17,17.17v27.47c0,9.48,7.69,17.17,17.17,17.17h27.47
		c9.48,0,17.17-7.69,17.17-17.17V21.06c0-9.48-7.69-17.17-17.17-17.17H21.31z M55.65,10.76c1.9,0,3.43,1.54,3.43,3.43
		s-1.54,3.43-3.43,3.43s-3.43-1.54-3.43-3.43S53.76,10.76,55.65,10.76z M35.05,17.62c9.48,0,17.17,7.69,17.17,17.17
		s-7.69,17.17-17.17,17.17S17.88,44.28,17.88,34.8S25.56,17.62,35.05,17.62z M35.05,24.49c-5.69,0-10.3,4.61-10.3,10.3
		s4.61,10.3,10.3,10.3s10.3-4.61,10.3-10.3S40.74,24.49,35.05,24.49z"/>
</g>
<g id="Layer_2" class="st0">
	<path class="st1" d="M35.05,0.63C16.08,0.63,0.7,16.01,0.7,34.97c0,17.22,12.68,31.43,29.21,33.92V44.07h-8.5v-9.03h8.5v-6.01
		c0-9.95,4.85-14.31,13.11-14.31c3.96,0,6.05,0.29,7.04,0.43v7.88h-5.64c-3.51,0-4.74,3.33-4.74,7.08v4.94h10.29l-1.39,9.03H39.7
		v24.89c16.76-2.27,29.69-16.61,29.69-33.99C69.39,16.01,54.01,0.63,35.05,0.63z"/>
</g>
<g id="Layer_3" class="st0">
	<path class="st1" d="M14.44,3.89c-5.65,0-10.3,4.65-10.3,10.3V55.4c0,5.65,4.65,10.3,10.3,10.3h41.21c5.65,0,10.3-4.65,10.3-10.3
		V14.19c0-5.65-4.65-10.3-10.3-10.3H14.44z M35.05,17.62h6.87c0,3.45,5.05,6.87,6.87,6.87v6.87c-2.08,0-4.57-0.91-6.87-2.46v12.76
		c0,5.68-4.62,10.3-10.3,10.3s-10.3-4.62-10.3-10.3s4.62-10.3,10.3-10.3v6.87c-1.9,0-3.43,1.54-3.43,3.43
		c0,1.89,1.54,3.43,3.43,3.43c1.9,0,3.43-1.54,3.43-3.43V17.62z"/>
</g>
<g id="Layer_4" class="st0">
	<path class="st1" d="M69.39,7.32c-2.68,1.59-8.05,3.76-11.21,4.38c-0.09,0.02-0.17,0.05-0.26,0.08c-2.79-2.75-6.62-4.46-10.85-4.46
		c-8.53,0-15.45,6.92-15.45,15.45c0,0.45-0.04,1.28,0,1.72c-11.52,0-20.28-6.03-26.56-13.74c-0.68,1.72-0.98,4.43-0.98,6.98
		c0,4.81,3.76,9.54,9.62,12.47c-1.08,0.28-2.27,0.48-3.5,0.48c-2,0-4.11-0.53-6.04-2.12c0,0.06,0,0.11,0,0.18
		c0,6.72,7.14,11.3,13.48,12.58c-1.29,0.76-3.88,0.83-5.15,0.83c-0.89,0-4.05-0.41-4.9-0.57c1.77,5.51,8.13,8.61,14.2,8.72
		c-4.75,3.72-8.04,5.1-17.76,5.1H0.7c6.14,3.94,13.96,6.87,21.8,6.87c25.52,0,40.02-19.45,40.02-37.78c0-0.3-0.01-0.91-0.02-1.54
		c0-0.06,0.02-0.12,0.02-0.18c0-0.09-0.03-0.18-0.03-0.27c-0.01-0.47-0.02-0.9-0.03-1.13c2.71-1.96,5.07-4.4,6.93-7.18
		c-2.49,1.11-5.16,1.85-7.97,2.18C64.29,14.66,68.36,10.56,69.39,7.32z"/>
</g>
<g id="Layer_5">
	<path class="st2" d="M67.95,14.83c-0.79-2.95-3.12-5.28-6.07-6.07c-5.36-1.44-26.84-1.44-26.84-1.44s-21.48,0-26.84,1.44
		c-2.95,0.79-5.28,3.12-6.07,6.07C0.7,20.19,0.7,34.8,0.7,34.8s0,14.61,1.44,19.97c0.79,2.95,3.12,5.28,6.07,6.07
		c5.36,1.44,26.84,1.44,26.84,1.44s21.48,0,26.84-1.44c2.96-0.79,5.28-3.12,6.07-6.07c1.44-5.36,1.44-19.97,1.44-19.97
		S69.39,20.19,67.95,14.83z M28.18,46.69V22.9l20.61,11.9L28.18,46.69z"/>
</g>
</svg>
